<mxfile host="app.diagrams.net" modified="2022-07-03T18:46:30.457Z" agent="5.0 (Windows NT 10.0; Win64; x64) AppleWebKit/537.36 (KHTML, like Gecko) Chrome/103.0.0.0 Safari/537.36" etag="K_MtRcn9AH-qyGJ_LaEg" version="20.0.4" type="github">
  <diagram id="vrzrKsfc7HYijvNeg2m8" name="Page-1">
    <mxGraphModel dx="687" dy="254" grid="1" gridSize="10" guides="1" tooltips="1" connect="1" arrows="1" fold="1" page="1" pageScale="1" pageWidth="827" pageHeight="1169" math="0" shadow="0">
      <root>
        <mxCell id="0" />
        <mxCell id="1" parent="0" />
        <mxCell id="y9ZoLtRb1wtq4ngt11Zq-1" value="teacher" style="shape=umlActor;verticalLabelPosition=bottom;verticalAlign=top;html=1;outlineConnect=0;" vertex="1" parent="1">
          <mxGeometry x="40" y="50" width="30" height="60" as="geometry" />
        </mxCell>
        <mxCell id="y9ZoLtRb1wtq4ngt11Zq-4" value="" style="rounded=1;whiteSpace=wrap;html=1;" vertex="1" parent="1">
          <mxGeometry x="130" y="60" width="120" height="60" as="geometry" />
        </mxCell>
        <mxCell id="y9ZoLtRb1wtq4ngt11Zq-5" value="&lt;font style=&quot;font-size: 7px;&quot;&gt;може створювати:&lt;br&gt;- екзамен&lt;br&gt;- контрольну&lt;br&gt;- групи&lt;br&gt;&lt;/font&gt;" style="text;html=1;resizable=0;autosize=1;align=left;verticalAlign=middle;points=[];fillColor=none;strokeColor=none;rounded=0;" vertex="1" parent="1">
          <mxGeometry x="150" y="50" width="80" height="70" as="geometry" />
        </mxCell>
      </root>
    </mxGraphModel>
  </diagram>
</mxfile>
